<?xml version="1.0" encoding="UTF-8"?>
<svg xmlns="http://www.w3.org/2000/svg" viewBox="0 0 262.18 121.5">
  <defs>
    <style>
      .logo-icon { fill: #fff; }
    </style>
  </defs>
  <g id="logo_main">
    <path class="logo-icon" d="M262.18 25.58c0 14.13-11.45 25.58-25.58 25.58-10.46 0-20.09 3.58-27.71 9.59-2.77 2.19-5.27 4.69-7.46 7.46-6.01 7.62-9.59 17.25-9.59 27.71 0 14.13-11.45 25.58-25.58 25.58s-25.58-11.45-25.58-25.58c0-10.46-3.58-20.09-9.59-27.71-2.19-2.77-4.69-5.27-7.46-7.46-7.62-6.01-17.25-9.59-27.71-9.59-14.13 0-25.58-11.45-25.58-25.58S81.8 0 95.92 0s25.58 11.45 25.58 25.58c0 10.46 3.58 20.09 9.59 27.71 2.19 2.77 4.69 5.27 7.46 7.46 7.62 6.01 17.25 9.59 27.71 9.59s20.09-3.58 27.71-9.59c2.77-2.19 5.27-4.69 7.46-7.46 6.01-7.62 9.59-17.25 9.59-27.71 0-14.13 11.45-25.58 25.58-25.58s25.58 11.45 25.58 25.58Z"/>
    <circle class="logo-icon" cx="25.58" cy="95.92" r="25.58"/>
    <path class="logo-icon" d="M68.21 60.75c-2.77 2.19-5.27 4.69-7.46 7.46-2.19-2.77-4.69-5.27-7.46-7.46 2.77-2.19 5.27-4.69 7.46-7.46 2.19 2.77 4.69 5.27 7.46 7.46Z"/>
  </g>
</svg>